<svg version="1.2" xmlns="http://www.w3.org/2000/svg" viewBox="0 0 464 564" width="464" height="564">
	<title>Flor_Completa</title>
	<style>
		.s0 { fill: #f472b6 } 
	</style>
	<g id="Capa 1">
		<g id="&lt;Group&gt;">
			<path id="&lt;Path&gt;" class="s0" d="m413 546q0.3 0 0.5 0c2.7-1.1 5.5-2.2 8.2-3.4-2.8-8.2-6-16.3-9.8-24.1-10.6-21.6-24.6-40-40.6-56.6-12.3-13-25.5-24.9-38.5-37-16.5-15.3-32.6-31.1-47.2-48.9q-15.9-19.6-28.6-42c-0.8-1.4-1.7-2.7-2.8-3.9-2.7-2.9-7.8-3.6-10.6-1.4-2.6 2-3.1 5.2-1.4 10.1 4.8 13.8 11.4 26.5 19.4 38.2 7.4 10.9 16.7 19.8 25.6 29 10.1 10.5 20.5 20.5 30.9 30.6 12.8 12.3 25.6 24.5 38.3 36.9 5.3 5.3 11 10.2 16 15.9 0.1 0.2 0.5 0.3 0.3 0.6-0.2 0.2-0.5 0.1-0.7-0.2q-6.3-2.2-12.6-4.4c-14.8-4.9-29.9-8.2-45-11.6-11.9-2.6-23.7-2.3-35.3 2.4-10.1 4.1-18.4 11.3-25.8 19.8-0.7 0.8-1.6 1.7-1.8 3.1 5.5 0.3 10.8 0.5 16 1.1 17.5 1.8 34.8 5.4 51.9 10.1 1.6 0.5 3.2 0.8 4.8 0.3 9.4-2.6 18.5-1.5 27.4 2.7 6.9 3.3 13.6 1.7 20.2-1.5 5.1-2.4 9.6-5.7 14.5-8.6 10.1 12.6 16.7 27.3 21.6 43.1 1.7-0.3 3.4-0.3 5.1-0.3z"/>
			<path id="&lt;Path&gt;" class="s0" d="m92.1 372.3c-2.3 0.3-4.7-0.3-7.1-0.9-2.7-0.8-3.1-1.5-2.8-4.6 0.8-7.1 1.9-14.2 3.7-21.1 4.7-18.5 12.7-34.9 24-49.2 8-10.1 17.4-18 27.4-25.2q16.7-12 35.6-18.5c2.1-0.8 3.9-0.6 5.8 0.7 1.7 1.2 3.7 2.1 5.5 3.1 2.8 1.5 2.9 1.6 2 5.1-3.4 13.5-8.4 26.1-14.6 38.2-7.8 14.9-17.1 28.5-28 40.7-11.2 12.5-23.8 22.8-38.7 29.1-4 1.8-8.2 2.8-12.8 2.6z"/>
			<path id="&lt;Compound Path&gt;" fill-rule="evenodd" class="s0" d="m272.1 162.7c-1.5-1.4-2.7-2.6-4-3.9-5.7 5.6-11.2 11.3-17.3 16.3-1.7 1.4-3.4 2.6-5.3 3.5-2.3 1-3.3 0-2.9-2.7 0.7-4.2 2.5-7.9 4.4-11.4 9.2-17.2 19.7-33.4 31.4-48.6 10.4-13.5 23.6-22.5 37.7-29.8 14.5-7.6 29.9-11.9 45.7-14.2 0.7-0.1 1.4-0.2 2.2 0.3-0.3 3.2-1.3 6.4-2.2 9.5-6.3 22.9-16.8 43.2-30.7 61.2-1.6 2.1-3.7 3.6-5.6 5.4-2.6 2.4-6 3.5-8.2 6.7-1.7 2.7-4.7 3.6-7.3 4.5-2.3 0.8-3.7 3.1-6 3.9-4.7 1.7-9.5 2.5-14.4 2.6-1.9 0-3.1 0.9-4.2 2.4-4.9 6.6-10.7 11.7-17.4 15.6-1.9 1.1-3.9 2.3-6 2.9-1 0.3-2.1 0.6-2.9-0.5-0.8-1-0.4-2.2 0-3.3 1.7-5.2 5-9.2 8-13.5 1.6-2.3 3.3-4.5 5-6.9zm13.4-12.9c0.7 0.1 1.3-0.4 1.9-0.9q4.5-3.7 8.9-7.4 13.7-11.5 27.5-23c1-0.9 1.9-1.8 1.5-3.5-0.3-1.4-1.4-2.1-2.6-2.3-1.1-0.2-1.9 0.5-2.8 1.2q-18 14.8-36.1 29.5c-1.1 1-2.3 2-1.8 3.8 0.5 1.9 2 2.2 3.5 2.6z"/>
			<path id="&lt;Path&gt;" class="s0" d="m341.3 381.2c-7.5-1.2-14.6-3.3-21.5-6.1-18.1-7.3-33.3-19.2-45.9-35.6-3.2-4.2-7.2-7.8-10.6-11.9-13.6-16.5-21.8-36-24.2-58.5-0.4-3.5-0.6-6.9-0.8-10.4-0.1-0.3 0.1-0.6 0.1-1 3.7 0.4 7.1 1.6 10.6 2.7 15.9 5.5 29.9 15.3 43.6 25.9 12.5 9.9 21 23.6 29.1 37.8 9.8 17.4 16.3 36.4 19.6 57.1z"/>
			<path id="&lt;Path&gt;" class="s0" d="m211.6 428.7c-3.7-6.6-7.1-13.3-10.3-20-5.7-11.9-10.5-24.3-13.5-37.4-3.6-15.5-3.3-31.1-0.5-46.6 3-16.3 7.6-32.1 12-47.9 1-3.7 2-7.4 3-11.1 0.4-1.4 1-2.2 2.4-2.3 2.4-0.3 4.8-0.9 7.2-1.3 1.2-0.2 1.8 0 2.4 1.4 9.4 25.4 16.2 51.5 18.8 78.9 1.7 18.7 1.1 37.2-4.2 55.2-3.5 11.9-9 22.4-17.3 31.1z"/>
			<path id="&lt;Path&gt;" class="s0" d="m411.4 281.9c-19.4 12.3-39.7 13.6-61 8.9 1.6-6.6 3.2-12.8 4.8-19.3-2.8-1-5.5-2-8.3-3-1.3 5-2.5 9.9-3.7 14.8-1.3 4.9-1.4 5-5.8 4.5-12.8-1.3-25.1-4.7-36.5-11.4-7.2-4.3-5.8-2.6-4.1-10.3 0.8-3.4 1.6-6.8 2.5-10.1 0-0.2 0-0.5 0-0.8-3.3-1.3-6.5-2.7-10-4.2-1.1 5.2-2.1 10.2-3.3 15.6-8-7.2-17.1-12.2-24.4-20.2-2.2-2.5-3.4-5.1-2.4-8.7 0.4-1.7 0.5-3.6 0.7-5.7 8.1-0.9 16.2-2 24.4-2.7 4.6-0.5 9.4-0.3 14-0.6 19.9-1.2 38.5 4.4 56.7 12.8 19.5 9 37 21.8 53.1 37.3 1 0.9 2 1.9 3.3 3.1z"/>
			<path id="&lt;Compound Path&gt;" fill-rule="evenodd" class="s0" d="m267.8 17.7c4.7 11.1 7.5 22.7 8.8 34.7 1.1 10.9 0.8 21.7-0.8 32.4q-0.6 3.7-2.1 7c-9.3 21.1-18.7 42.1-29.5 62.3-3 5.4-5.7 10.9-9.4 15.7-0.8 1.1-1.7 3-3 2.2-1.4-0.8-0.8-2.7-0.5-4.2 1.7-9.8 4.8-19.2 7.7-28.6 0.4-1.3 0.8-2.6 1.2-4-3-1.6-5.8-3.1-8.9-4.7-1.8 5.4-3.5 10.6-5.3 15.9-1.5 4.2-3.1 8.4-5.3 12.2-0.9 1.5-1.8 3.7-3.9 3.2-1.8-0.4-2-2.7-2.3-4.5-0.9-5.6-1.1-11.4-0.9-17.1 0.5-11 1.2-22 2.5-33 1.1-9.8 2.2-19.6 4.8-29.1 2.4-8.9 7.2-16.4 11.9-23.9 9.1-14.6 20.4-26.5 33.9-35.9 0.3-0.2 0.6-0.3 1.1-0.6zm-27.9 103.3c1.8-0.2 3-1.3 3.5-3.4 2.3-8.2 4.6-16.3 6.9-24.5 1.9-6.7 3.8-13.4 5.7-20.1 0.8-3-0.6-5-3.2-4.6-1.7 0.2-2.2 1.6-2.7 3.1-1.8 6.2-3.5 12.4-5.3 18.5-2.6 8.7-5.2 17.4-7.7 26.2-0.8 2.9 0.3 4.8 2.8 4.8z"/>
			<path id="&lt;Compound Path&gt;" fill-rule="evenodd" class="s0" d="m71.8 66.6c5.3-0.2 10.2 0.9 15.1 2 19.6 4.5 36.6 14.8 51.8 29.2 11.3 10.7 20.9 22.9 27.6 37.8 5.1 11.5 8.8 23.5 9.6 36.4 0.2 3 0.1 6 0.2 9.2-4.5-0.6-8.7-1.9-12.9-3.2-19.4-6.2-36.8-16.8-52.6-30.8-3.8-3.2-6-7.8-8.6-12-11-17.5-20.3-36-26.8-56.3-1.3-4-2.4-8-3.4-12.3zm37.5 33.2c-1.7 0.2-2.9 1.1-3.5 2.8-0.8 2.2 0.8 3.3 1.8 4.5 11.8 13.9 23.7 27.7 35.5 41.5 0.9 1 1.9 1.7 3.1 1.8 1.7 0.2 2.8-0.7 3.6-2.3 0.7-1.6 0.5-3-0.6-4.2q-18.8-21.4-37.6-42.9c-0.7-0.8-1.4-1-2.3-1.2z"/>
			<path id="&lt;Compound Path&gt;" fill-rule="evenodd" class="s0" d="m185.6 127.7c1.4 6.1 2.8 12 4.2 17.9 1.3 5.7 2.4 11.4 2.9 17.3 0.2 1.2 0.3 2.4-0.8 3-1.2 0.8-2-0.4-2.7-1.4-4.6-6.6-8.2-13.9-11.7-21.4-5.8-12.8-11.6-25.5-17.6-38.2-1.8-4-2.1-8.3-2.6-12.6-1.1-9.4-1.9-18.9-1.7-28.4 0.2-13.3 1.8-26.3 6-38.8 1.3-4 2.4-4.7 6.3-4.4 5.7 0.5 10.1 3.7 14.1 8 6.2 6.6 10.5 14.6 14.2 23.1 5.4 12.6 9.6 25.8 12.1 39.6 0.8 4.5 0.1 8.8-1.1 13.2-1.5 5.4-2.9 10.9-4.4 16.4-0.5 1.9-0.2 3.8 0.4 5.6q5.1 14.9 1.6 30.3c-0.5 2.1-1.1 4.7-3.4 4.9-2.4 0.3-3.2-2.4-3.9-4.3-2.9-8.2-4-16.9-5-25.5-0.1-0.9-0.2-1.7-0.3-2.6-0.1-1-0.6-1.7-1.6-1.7-1.6 0-3.2 0-5 0zm4.4-15.6c0-0.2-0.1-0.8-0.2-1.3q-3.4-16.3-6.8-32.5c-0.9-4.3-1.8-8.6-2.8-12.8-0.5-2-2.1-3-3.6-2.6-1.9 0.6-2.5 1.9-2.2 4.3 0.6 3.8 1.4 7.7 2.2 11.5 1.8 8 3.2 16 4.9 24 0.8 3.6 1.4 7.2 2.2 10.8 0.4 2.1 2 3.3 3.6 3 1.6-0.2 2.8-1.9 2.7-4.4z"/>
			<path id="&lt;Path&gt;" class="s0" d="m157.8 234.7c-3.2 8.1-8.5 14.1-14.7 19.2-9.6 8-20.5 12.3-31.7 16-14.4 4.7-29 7.5-44 8.2-11.4 0.5-22.7 0.2-33.6-3.6-7.1-2.4-13.8-5.8-19.5-11.3-0.5-0.5-0.9-0.9-1.5-1.6 14.1-9 28.1-17.9 42.3-26.9 1.9 6.2 3.8 12.3 5.7 18.7 2.5-0.8 5-1.6 7.7-2.4-2.1-6.5-4-12.8-6.1-19.3 16-6.9 32.3-11.2 49.8-10 0.8 6.2 1.7 12.6 2.5 19.2 14.3-2.2 28.5-4.4 42.7-6.6q0.2 0.2 0.4 0.4z"/>
			<path id="&lt;Path&gt;" class="s0" d="m360.2 177.7c-1.4-5-2.8-9.7-4.2-14.7 3.2-1.5 6.5-1.5 9.7-1.7 16.2-1 31.4 3.4 46.2 10.4 1.8 0.8 1.7 2 1.2 3.5q-2.7 7.7-8 13.3c-9 9.7-20.1 15.1-31.7 19.6-2.6 1-5.3 1.9-8.2 3-0.8-4.8-1.6-9.4-2.5-14.3-3.1 1-6.2 2.1-9.3 3.1-13.5 4.5-27 8.9-40.8 12-15.4 3.4-30.8 4.1-46.1-0.1-3.1-0.9-3.9-2-3.6-5.5 0-0.5 0.2-1 0.1-1.4-0.8-6.6 2.9-10.2 7.1-13.2 7.1-5 15-6.7 23.2-7.4 8.8-0.8 17.6-1.7 26.4-2.6q16-1.6 31.9-3.2c2.8-0.3 5.6-0.5 8.6-0.8z"/>
			<path id="&lt;Path&gt;" class="s0" d="m369.6 450.6c-3.7-24.3-0.6-47.2 9.4-68.7 10.5-22.9 26.6-39.1 47.6-49.4 0.5 10.1 0.5 19.8-0.1 29.5-0.9 13.5-2.9 26.8-5.7 40-1.4 6.7-4.3 11.9-8.4 16.8-9 10.8-19.5 19.4-31.2 26-3.7 2.1-7.6 3.8-11.6 5.8z"/>
			<path id="&lt;Path&gt;" class="s0" d="m246.7 217.3c-0.4 10.9-6.2 21.1-16.8 27.4-12.1 7.1-24.7 7.8-36.9 0.5-10.6-6.4-17.1-16.6-17.4-30.6-0.3-11.2 4.2-20.3 12-27.1 14.9-13.2 36.5-12 50.2 2.9 5.8 6.5 8.9 14.5 8.9 26.9z"/>
			<path id="&lt;Path&gt;" class="s0" d="m23.9 157.4c35.4 11.3 70.7 22.6 106.1 33.8 1.1-4.7 2.1-9.2 3.2-14.1 11.5 6.9 21.4 15.7 29.2 27.3-0.5 0.9-1.2 1.1-1.9 1.4-14 4.9-28.4 7.6-43.1 7.1-15.4-0.5-30.3-4.4-44.7-10.8-11.8-5.3-23-11.9-33.2-20.6-6.5-5.6-11.9-12.2-15.1-20.9-0.3-0.9-0.7-1.7-0.5-3.2z"/>
			<path id="&lt;Path&gt;" class="s0" d="m157.4 234.3q0.3 0 0.5-0.1-0.1 0.3-0.1 0.5-0.2-0.2-0.4-0.4z"/>
		</g>
	</g>
</svg>