<?xml version="1.0" encoding="UTF-8"?>
<svg id="Capa_1" xmlns="http://www.w3.org/2000/svg" version="1.1" viewBox="0 0 160 160">
  <!-- Generator: Adobe Illustrator 29.6.1, SVG Export Plug-In . SVG Version: 2.1.1 Build 9)  -->
  <defs>
    <style>
      .st0 {
        fill: #e0528b;
      }

      .st0, .st1 {
        fill-rule: evenodd;
      }

      .st1 {
        display: none;
        fill: none;
      }
    </style>
  </defs>
  <g>
    <path class="st0" d="M56.72,87.86c-.43.05-.89-.07-1.35-.2-.52-.15-.61-.31-.55-.94.15-1.48.37-2.95.7-4.39.9-3.84,2.45-7.25,4.61-10.23,1.52-2.09,3.34-3.74,5.26-5.23,2.13-1.66,4.4-2.95,6.81-3.86.4-.15.75-.11,1.12.16.33.25.7.43,1.05.64.54.32.55.34.38,1.07-.64,2.8-1.61,5.42-2.8,7.93-1.49,3.1-3.26,5.94-5.35,8.46-2.16,2.6-4.57,4.74-7.42,6.06-.78.36-1.58.57-2.46.54Z"/>
    <path class="st0" d="M91.23,44.29c-.28-.31-.52-.56-.77-.82-1.09,1.17-2.15,2.37-3.31,3.4-.32.28-.65.54-1.02.71-.44.21-.64.01-.55-.56.13-.87.48-1.63.85-2.37,1.77-3.57,3.78-6.93,6.02-10.09,2-2.82,4.52-4.68,7.23-6.21,2.79-1.57,5.73-2.45,8.76-2.94.13-.02.26-.04.42.05-.05.68-.24,1.33-.41,1.98-1.21,4.76-3.22,8.98-5.89,12.72-.31.43-.72.76-1.09,1.11-.5.5-1.15.74-1.56,1.41-.34.55-.9.74-1.41.93-.45.17-.71.63-1.15.8-.9.35-1.83.52-2.77.55-.35,0-.59.19-.8.5-.93,1.36-2.05,2.43-3.33,3.23-.37.23-.74.48-1.15.61-.19.06-.4.12-.55-.09-.15-.21-.08-.46-.01-.68.33-1.09.97-1.93,1.55-2.82.31-.48.63-.94.95-1.42ZM93.82,41.61c.13.03.24-.08.36-.19.57-.52,1.14-1.03,1.7-1.54,1.76-1.59,3.51-3.18,5.27-4.77.2-.18.37-.38.29-.72-.07-.3-.26-.44-.49-.48-.21-.04-.38.1-.54.24-2.31,2.05-4.62,4.09-6.93,6.14-.21.19-.43.4-.34.79.09.39.38.45.67.53Z"/>
    <path class="st0" d="M104.51,89.7c-1.44-.26-2.8-.69-4.13-1.27-3.46-1.51-6.38-3.99-8.79-7.4-.63-.88-1.38-1.62-2.03-2.48-2.61-3.43-4.19-7.48-4.65-12.16-.07-.72-.11-1.44-.16-2.15,0-.06.02-.12.03-.21.7.09,1.36.32,2.02.57,3.06,1.14,5.74,3.16,8.35,5.38,2.41,2.05,4.03,4.91,5.58,7.85,1.9,3.61,3.14,7.56,3.77,11.87Z"/>
    <path class="st0" d="M79.63,99.57c-.71-1.36-1.35-2.75-1.97-4.16-1.09-2.48-2.02-5.04-2.59-7.77-.68-3.22-.63-6.45-.09-9.68.57-3.39,1.45-6.67,2.29-9.96.2-.77.4-1.53.58-2.3.07-.29.19-.45.46-.49.47-.06.93-.17,1.39-.27.22-.04.35.02.44.31,1.81,5.26,3.11,10.69,3.6,16.39.33,3.88.23,7.73-.79,11.47-.67,2.48-1.73,4.67-3.33,6.46Z"/>
    <path class="st0" d="M117.95,69.07c-3.73,2.54-7.62,2.82-11.7,1.83.31-1.35.62-2.66.93-3.99-.54-.22-1.06-.42-1.6-.64-.24,1.05-.48,2.07-.72,3.08-.24,1.02-.26,1.04-1.11.95-2.45-.27-4.81-.98-7-2.39-1.38-.88-1.12-.53-.78-2.14.15-.7.31-1.39.47-2.09,0-.04,0-.09,0-.16-.62-.28-1.24-.56-1.91-.87-.21,1.07-.41,2.12-.62,3.24-1.55-1.5-3.3-2.55-4.68-4.21-.42-.51-.67-1.04-.48-1.8.09-.36.1-.76.15-1.18,1.56-.2,3.11-.42,4.67-.58.9-.09,1.8-.05,2.7-.11,3.8-.25,7.38.92,10.86,2.65,3.75,1.87,7.11,4.53,10.19,7.74.2.21.39.41.63.66Z"/>
    <path class="st0" d="M90.41,14.14c.9,2.32,1.44,4.72,1.69,7.23.22,2.25.16,4.49-.15,6.72-.07.51-.2,1-.39,1.46-1.8,4.37-3.6,8.74-5.67,12.93-.56,1.13-1.09,2.27-1.79,3.28-.16.22-.32.62-.58.46-.26-.16-.14-.57-.09-.88.33-2.04.92-3.98,1.48-5.93.08-.27.15-.54.24-.84-.57-.33-1.13-.64-1.71-.97-.34,1.12-.67,2.21-1.02,3.29-.28.88-.6,1.75-1.03,2.54-.17.32-.35.78-.73.68-.36-.1-.38-.57-.44-.94-.19-1.17-.22-2.37-.17-3.56.08-2.29.22-4.58.47-6.86.22-2.04.43-4.08.93-6.05.47-1.85,1.39-3.41,2.29-4.97,1.75-3.03,3.92-5.51,6.49-7.45.06-.04.11-.08.21-.14ZM85.07,35.62c.34-.03.56-.27.67-.71.43-1.7.87-3.39,1.32-5.09.36-1.39.73-2.78,1.09-4.17.16-.62-.11-1.04-.62-.97-.32.05-.42.34-.51.65-.34,1.28-.68,2.56-1.02,3.84-.49,1.81-.98,3.62-1.47,5.44-.16.61.05,1,.53,1Z"/>
    <path class="st0" d="M52.84,24.31c1.01-.03,1.95.19,2.9.43,3.75.93,7.01,3.07,9.93,6.06,2.16,2.22,4,4.76,5.28,7.86.98,2.38,1.69,4.87,1.85,7.56.04.63.03,1.25.03,1.92-.86-.14-1.66-.4-2.46-.67-3.72-1.28-7.06-3.49-10.1-6.4-.71-.68-1.13-1.63-1.64-2.5-2.12-3.63-3.9-7.49-5.14-11.7-.24-.83-.47-1.66-.64-2.56ZM60.02,31.22c-.31.04-.55.23-.67.58-.15.44.16.69.35.94,2.26,2.88,4.54,5.75,6.81,8.63.16.2.35.33.58.37.32.05.55-.15.7-.49.14-.32.1-.61-.11-.87-2.4-2.97-4.81-5.93-7.21-8.91-.13-.16-.28-.22-.45-.24Z"/>
    <path class="st0" d="M74.65,37.02c.28,1.27.55,2.49.81,3.71.26,1.18.46,2.37.56,3.59.02.26.05.51-.15.64-.24.16-.39-.09-.52-.29-.88-1.38-1.59-2.9-2.25-4.46-1.12-2.65-2.23-5.31-3.37-7.94-.36-.83-.4-1.72-.5-2.6-.22-1.96-.36-3.93-.33-5.91.04-2.76.34-5.47,1.15-8.07.26-.82.47-.97,1.2-.9,1.1.09,1.95.76,2.71,1.65,1.18,1.37,2,3.04,2.71,4.81,1.05,2.62,1.84,5.35,2.32,8.21.16.95.04,1.84-.2,2.74-.29,1.13-.56,2.27-.84,3.41-.1.41-.05.79.07,1.18.65,2.06.75,4.15.3,6.28-.1.45-.2.99-.64,1.04-.46.05-.62-.5-.75-.91-.56-1.7-.77-3.5-.95-5.3-.02-.18-.03-.35-.05-.53-.03-.22-.12-.35-.31-.35-.31,0-.62,0-.97,0ZM75.5,33.77s-.03-.16-.05-.28c-.43-2.25-.87-4.5-1.31-6.75-.17-.89-.34-1.78-.53-2.66-.09-.42-.39-.62-.69-.53-.36.12-.49.38-.41.88.12.8.26,1.61.42,2.4.34,1.66.61,3.33.94,4.99.15.75.27,1.5.42,2.25.09.44.38.69.69.63.31-.06.54-.4.53-.92Z"/>
    <path class="st0" d="M69.31,59.25c-.6,1.69-1.63,2.93-2.81,4-1.83,1.65-3.94,2.55-6.09,3.32-2.75.98-5.56,1.57-8.43,1.7-2.18.11-4.34.04-6.44-.74-1.36-.5-2.64-1.22-3.74-2.36-.09-.09-.17-.19-.29-.32,2.71-1.87,5.39-3.72,8.13-5.61.36,1.3.72,2.57,1.09,3.89.49-.16.96-.32,1.48-.5-.39-1.35-.77-2.66-1.17-4,3.07-1.43,6.19-2.33,9.55-2.09.16,1.3.32,2.62.48,4,2.74-.46,5.46-.92,8.19-1.37.02.03.04.06.06.09Z"/>
    <path class="st0" d="M108.13,47.4c-.27-1.03-.53-2.02-.8-3.05.6-.31,1.23-.32,1.85-.36,3.11-.21,6.03.72,8.87,2.16.33.17.31.43.21.74-.34,1.06-.85,1.99-1.52,2.77-1.74,2.01-3.86,3.13-6.08,4.06-.5.21-1.01.41-1.57.63-.16-1.01-.31-1.96-.47-2.98-.61.22-1.2.44-1.8.66-2.58.93-5.17,1.85-7.81,2.49-2.96.71-5.9.84-8.85-.03-.59-.17-.74-.4-.69-1.15,0-.1.04-.19.03-.28-.16-1.38.55-2.11,1.36-2.73,1.35-1.04,2.87-1.41,4.44-1.55,1.69-.16,3.38-.35,5.07-.53,2.04-.22,4.08-.45,6.12-.67.53-.06,1.07-.11,1.65-.17Z"/>
    <path class="st0" d="M86.36,55.63c-.07,2.27-1.18,4.39-3.22,5.7-2.31,1.48-4.73,1.63-7.07.11-2.04-1.33-3.28-3.45-3.34-6.36-.05-2.34.81-4.22,2.3-5.64,2.87-2.73,7-2.48,9.62.62,1.13,1.33,1.72,3,1.71,5.57Z"/>
    <path class="st0" d="M43.64,43.2c6.8,2.35,13.57,4.68,20.35,7.02.21-.97.41-1.91.63-2.93,2.19,1.44,4.1,3.26,5.6,5.68-.09.19-.23.24-.37.29-2.69,1.02-5.44,1.57-8.26,1.47-2.96-.1-5.81-.9-8.57-2.24-2.27-1.1-4.42-2.47-6.37-4.29-1.24-1.16-2.29-2.53-2.9-4.35-.06-.18-.13-.35-.11-.65Z"/>
    <path class="st0" d="M69.25,59.17s.06,0,.09-.01c-.01.03-.02.07-.03.1-.02-.03-.04-.06-.06-.09Z"/>
  </g>
  <g>
    <path class="st0" d="M155.49,120.85c-.1.58-.18,1.17-.3,1.74-.65,3.17-1.98,5.64-4.05,7.34-.57.47-1.12,1-1.65,1.57-1.3,1.43-2.79,2.2-4.45,2.48-1.72.29-3.44.36-5.15-.16-3.36-1.04-5.49-3.84-6.44-8.35-.24-1.14-.41-2.3-.57-3.5-.07.54-.14,1.08-.22,1.61-.26,1.87-.49,3.75-1.02,5.53-.33,1.1-.72,2.16-1.47,2.86-.33.31-.7.48-1.1.5-.22,0-.34.13-.46.39-.44,1-1,1.81-1.91,2-.97.2-1.71-.34-2.34-1.28-.55-.81-.88-1.79-1.18-2.8-.94-3.19-1.5-6.5-1.91-9.87-.35-2.83-.66-5.67-.98-8.5,0-.07-.04-.13-.07-.24-.26.27-.37.66-.56.97-.57.93-1.24,1.63-2.1,1.98-.15.06-.28.15-.38.32-.92,1.61-2.13,2.42-3.63,2.39-.04,0-.08.01-.16.03-.05.94-.09,1.88-.14,2.82-.14,2.64-.3,5.27-.71,7.86-.2,1.29-.53,2.5-1.21,3.47-.42.59-.9,1.02-1.5,1.14-.31.06-.5.27-.66.62-.41.88-.98,1.49-1.73,1.75-1.27.45-2.49-.23-3.27-1.75-.54-1.06-.79-2.27-1.06-3.48-.04-.17-.07-.33-.12-.55-.11.15-.12.3-.15.45-.2,1.11-.55,2.11-1.23,2.83-.35.37-.75.6-1.18.67-.28.05-.46.2-.61.55-.63,1.5-1.72,2.18-2.94,1.84-.86-.24-1.34-1.1-1.72-2.09-.13-.34-.25-.69-.38-1.05-.41.18-.74.48-1.04.87-1.27,1.65-2.8,2.48-4.55,2.69-1.54.19-3.03-.07-4.46-.93-1.97-1.19-3.36-3.21-4.32-5.79-.82-2.23-1.23-4.61-1.41-7.07-.13-1.71-.19-3.43-.14-5.2-.26.29-.48.58-.72.82-.75.76-1.6,1.14-2.54,1.13-.25,0-.33.11-.34.45-.14,3.41-.29,6.82-.8,10.17-.17,1.17-.45,2.27-1.01,3.22-.47.81-1.05,1.35-1.8,1.52-.24.06-.4.22-.54.49-1.39,2.82-4.02,2.65-5.26-.34-.48-1.15-.72-2.42-.98-3.67-.06-.3-.14-.59-.23-.95-.35.82-.72,1.52-1.17,2.14-.58.81-1.22,1.51-1.99,1.94-.39.22-.65.62-.94.98-1.18,1.45-2.62,2.13-4.17,2.43-2.86.56-5.51-.2-7.93-2.43-1.49-1.38-2.48-3.27-3.03-5.6-.11-.46-.22-.93-.35-1.49-.14,1.13-.24,2.15-.39,3.17-.19,1.28-.44,2.53-1.03,3.59-.41.73-.94,1.17-1.63,1.16-.27,0-.43.12-.55.47-.33.94-.83,1.67-1.61,1.9-1.07.31-2.03-.46-2.49-2.03-.42-1.43-.66-2.92-.91-4.41-.75-4.43-1.16-8.94-1.59-13.44-.26-2.72-.52-5.43-.76-8.15-.14-1.59-.24-3.18-.35-4.77-.08-1.28-.15-2.57-.22-3.86-.02-.44.04-.89-.02-1.39-.18.5-.33.97-.51,1.41-.58,1.4-1.41,2.5-2.42,3.33-.68.56-1.32,1.16-1.94,1.83-.89.97-1.91,1.65-3,2.14-.09.04-.2.03-.27.19.3.2.61.36.9.59,1.45,1.13,2.37,2.8,2.6,5.06.19,1.82-.03,3.52-1,4.9-.35.49-.76.87-1.21,1.17-.52.34-.99.78-1.41,1.32-1.13,1.45-2.55,2.06-4.1,2.4-.03.77-.07,1.59-.1,2.42-.08,2.13-.11,4.26-.61,6.3-.29,1.19-.67,2.31-1.46,3.06-.36.35-.77.54-1.2.61-.18.03-.31.11-.39.33-1.13,3.03-4.33,2.71-5.51-.31-.44-1.13-.65-2.35-.84-3.59-.39-2.66-.66-5.34-.89-8.03-.18-2.09-.3-4.18-.46-6.27-.21-2.8-.37-5.6-.64-8.39,0-.1-.01-.21-.01-.31-.03-.86-.25-1.48-.82-2.02-2.01-1.93-3.25-4.57-3.58-7.91-.15-1.5-.23-3.01.15-4.48.46-1.76,1.2-3.1,2.66-3.39.19-.04.28-.25.38-.45.47-1,1.09-1.72,1.98-1.9.53-.11,1.06-.06,1.59.09.59.17,1.08,0,1.46-.7.6-1.11,1.45-1.69,2.44-1.9,1.4-.3,2.75-.13,3.99.94.62.53,1.07,1.26,1.41,2.12.27.66.26.65.79.61,1.63-.13,3.22-.54,4.79-1.15.77-.3,1.53-.66,2.26-1.09,1.58-.93,3.08-.24,4.05,1.61.66,1.26,1.04,2.67,1.17,4.21.16-.06.14-.27.17-.42.29-1.28.65-2.5,1.26-3.56.5-.86,1.14-1.44,1.9-1.75.23-.09.4-.24.55-.51.76-1.4,1.81-2.05,3.06-2.19,2.11-.23,3.56,1.16,4.61,3.55.74,1.69,1.12,3.53,1.3,5.46.21,2.18.15,4.38.11,6.57-.05,3.03-.27,6.05-.52,9.05,0,.04,0,.08.02.18.28-.64.52-1.26.8-1.85.85-1.75,1.87-3.3,3.27-4.26.6-.41,1.06-1.05,1.59-1.58,2.29-2.3,4.78-2.58,7.44-1.33,1.24.58,2.22,1.55,2.68,3.31.09.35.15.71.15,1.09,0,.32.09.53.35.59.28.07.52.28.79.47.14-.39.15-.83.25-1.24.42-1.71,1.3-2.74,2.55-3.22.15-.06.28-.1.38-.3.68-1.51,1.76-2.1,2.99-2.34,1.27-.24,2.46.05,3.53,1.1.35.34.63.78.99,1.22,1.13-2.02,2.58-3,4.47-2.64,1.86.36,3.1,1.8,3.91,4.07.59-.61,1.21-1.04,1.82-1.51.43-.33.74-.94,1.16-1.34,1.14-1.08,2.4-1.63,3.79-1.78.93-.1,1.85-.1,2.76.16,1.04.3,1.99.86,2.78,1.86.28.35.37.33.6-.07.97-1.77,2.33-2.36,3.89-2.26,1.56.1,2.75,1.09,3.55,2.94.02.05.05.09.1.16.48-.47,1.01-.81,1.58-1,.07-.02.15-.12.2-.22.7-1.49,1.76-2.11,2.99-2.34,1.32-.25,2.55.05,3.63,1.2.2.21.38.45.56.69.32.42.37.43.65-.05.52-.89,1.17-1.54,1.95-1.9,1.27-.58,2.52-.45,3.73.38.18.12.33.12.49-.01.2-.16.4-.3.63-.34.32-.05.39-.3.37-.67-.02-.8.01-1.6.09-2.39.15-1.49.42-2.93,1.14-4.13.49-.82,1.11-1.39,1.84-1.74.29-.14.53-.35.73-.69.7-1.19,1.65-1.82,2.74-2.09,1.43-.36,2.85-.4,4.25.25,1.17.55,1.94,1.64,2.36,3.22.39,1.5.56,3.05.62,4.62.02.47.12.71.49.81,1.48.4,2.23,1.76,2.5,3.7.13.94.21,1.9.22,2.88.16-.03.23-.17.32-.27.35-.38.7-.72,1.11-.98.44-.28.82-.71,1.19-1.14,1.43-1.68,3.11-2.6,4.97-2.9,2.03-.32,4.05-.15,5.95,1.03,2.45,1.52,3.91,4.03,4.07,7.79.08,2-.14,3.89-.9,5.63-.62,1.41-1.47,2.49-2.51,3.31-.38.3-.78.58-1.11.99-.03.03-.06.06-.09.09-.05.03-.09.05-.1.14-.04,0-.08.02-.1.09.05.07.1.02.14-.02.04-.04.07-.08.11-.12.04-.03.09-.06.13-.1.57-.44,1.11-.96,1.71-1.34.65-.41,1.31-.68,2.04-.49.82.22,1.37.9,1.73,1.91.04.12.02.29.15.36l.11,3.74ZM17.63,115.48s-.03-.08-.03-.11c.09-1.8.2-3.6.37-5.38.04-.4.19-.56.45-.61.61-.11,1.22-.24,1.83-.34,1.74-.28,3.48-.62,5.15-1.4,1.21-.56,2.29-1.39,3.18-2.64.89-1.24,1.4-2.72,1.5-4.45.11-1.9-.03-3.77-.76-5.46-.76-1.75-1.63-2.35-3.07-1.51-2.55,1.48-5.23,2.16-7.99,2.33-.65.04-.67.04-.91-.8-.4-1.4-1.09-2.38-2.15-2.83-.59-.25-1.2-.27-1.81-.22-.81.07-1.51.46-2.05,1.31-.27.43-.47.92-.68,1.4-.13.32-.29.41-.56.34-.61-.18-1.22-.32-1.83-.47-.83-.2-1.47.18-1.91,1.16-.25.54-.46,1.12-.52,1.75-.29,2.86.21,5.46,1.5,7.78.6,1.09,1.4,1.86,2.21,2.62.34.32.55.77.59,1.33.18,2.09.36,4.18.51,6.27.24,3.12.45,6.25.68,9.37.22,2.96.53,5.9.96,8.83.15,1.05.31,2.1.76,3.01.48.96,1.13,1.46,2,1.32.73-.11,1.1-.79,1.39-1.61.27-.78.44-1.6.56-2.44.25-1.76.25-3.56.32-5.34.08-2.23.13-4.46.17-6.69.01-.68.02-1.37.11-2.16.42.99.96,1.7,1.56,2.31.78.78,1.61,1.26,2.59.95.42-.13.84-.3,1.23-.56.67-.45,1.36-.88,1.77-1.8.88-1.98.32-4.94-1.18-6.39-.94-.91-1.98-1.19-3.1-1.03-1.1.16-2.09.67-2.7,2.04-.03.07-.07.15-.16.13ZM92.76,108.22c-.06-.05-.09-.06-.1-.08-.05-.1-.09-.2-.14-.3-.82-1.9-2-3.11-3.6-3.5-.75-.18-1.51-.16-2.27-.08-1.89.2-3.4,1.31-4.5,3.4-.96,1.81-1.37,3.93-1.71,6.07-.44,2.81-.46,5.66-.24,8.52.15,2.09.45,4.13,1.07,6.06.64,1.98,1.53,3.7,2.88,4.91,1.45,1.31,3.04,1.84,4.77,1.64,2.15-.25,3.84-1.48,4.99-4.01.42-.93.69-1.96.99-3.02.24.85.39,1.68.56,2.51.24,1.17.51,2.34,1.02,3.35.52,1.03,1.37,1.1,1.99.2.41-.59.59-1.33.7-2.11.39-2.71.66-5.45.84-8.2.17-2.53.34-5.06.28-7.61-.04-1.59-.1-3.17-.24-4.74-.12-1.36-.22-2.74-.57-4.04-.5-1.89-1.38-3.14-2.94-3.24-1.22-.08-2.23.44-2.95,1.84-.39.74-.64,1.56-.83,2.45ZM133.98,119.04c.03,1.51.18,3.01.41,4.49.22,1.47.52,2.91,1.09,4.21,1.02,2.35,2.55,3.73,4.46,4.37,1.45.49,2.92.53,4.4.31.83-.13,1.66-.29,2.43-.72,2.46-1.37,4.02-3.83,4.71-7.32.26-1.33.44-2.69.19-4.07-.22-1.23-.88-1.71-1.75-1.29-.88.42-1.63,1.16-2.41,1.8-1.12.92-2.3,1.51-3.63,1.38-1.31-.13-2.5-.67-3.44-1.98-1.22-1.69-1.54-3.8-1.48-6.06.04-1.62.41-3.13.89-4.59.53-1.59,1.4-2.45,2.73-2.35.85.07,1.43.67,1.66,1.78.39,1.92-.01,3.49-1.06,4.8-.33.41-.66.81-.88,1.35-.26.62-.21,1.28.16,1.78.28.38.61.66.98.87.68.38,1.35.26,2.04.01,1.41-.51,2.62-1.46,3.61-2.9.86-1.24,1.24-2.77,1.33-4.46.17-3.22-.71-5.7-2.82-7.28-1.87-1.41-3.9-1.62-5.95-1.23-3.25.63-5.39,3.2-6.59,7.31-.92,3.14-1.15,6.42-1.07,9.78ZM120.83,100.67c-.24.04-.46.09-.69.13-1.1.16-1.76.88-1.99,2.3-.29,1.72-.25,3.43.18,5.12.28,1.1.82,1.83,1.66,2.14.33.12.66.2,1,.17.25-.02.35.14.38.45.35,3.08.69,6.17,1.07,9.25.4,3.26.92,6.48,1.8,9.58.28,1,.59,1.98,1.15,2.77.6.86,1.28.87,1.86,0,.52-.77.78-1.73.98-2.72.88-4.31,1.26-8.74,1.56-13.19.15-2.2.27-4.41.41-6.63.17-.03.33-.06.49-.08,1.21-.14,1.91-.98,2.08-2.52.17-1.61.09-3.22-.23-4.79-.32-1.53-.79-2.04-1.96-2.2-.29-.04-.59.1-.88-.08,0-.33-.02-.65-.03-.98-.03-1.62-.15-3.22-.48-4.79-.32-1.57-1.03-2.58-2.22-2.91-.73-.2-1.47-.29-2.2-.19-.71.1-1.42.28-2.06.74-1.07.78-1.49,2.13-1.71,3.66-.22,1.55-.15,3.12-.15,4.76ZM62.58,122.23c-.04-.75-.03-1.51-.1-2.26-.18-2.04-.5-4.02-1.19-5.88-.34-.91-.73-1.76-1.41-2.27-.55-.41-1.17-.2-1.52.5-.3.58-.32,1.23-.26,1.91.1,1.08.22,2.18.04,3.26-.35,2.13-1.38,3.33-2.91,3.79-1.67.49-3.21-.44-3.98-2.42-.63-1.63-.75-3.31-.39-5.08.47-2.31,1.6-3.35,3.27-3.45,1.1-.06,2.15.25,3.18.79.43.22.75.06.97-.47.33-.79.16-2.08-.44-2.8-1.22-1.45-2.71-1.92-4.26-1.8-2.15.17-3.83,1.63-5.1,3.96-.95,1.74-1.52,3.73-1.98,5.79-.92,4.15-.95,8.34-.15,12.56.61,3.24,2.04,5.5,4.29,6.85,1.87,1.12,3.79,1.39,5.79.95,1.62-.35,2.96-1.31,4-3.04.96-1.59,1.54-3.43,1.9-5.41.33-1.8.33-3.63.24-5.47ZM43,100.8c-.02-.83-.06-1.66-.14-2.48-.2-2.01-.65-3.89-1.59-5.52-1.26-2.17-3.47-2.52-4.84-.71-.7.92-1.11,2.11-1.29,3.41-.31,2.2-.37,4.43-.33,6.67.03,1.63.16,3.25.27,4.87.15,2.34.37,4.68.58,7.01.23,2.5.51,4.98.73,7.48.4,4.41.93,8.79,1.77,13.09.12.6.25,1.19.5,1.73.39.83,1,.92,1.42.19.19-.32.35-.67.45-1.07.36-1.31.54-2.67.67-4.05.22-2.39.27-4.8.45-7.19.36-4.7.74-9.4,1.09-14.1.23-3.1.32-6.22.25-9.34ZM71.59,113.03c.2.13.21.3.24.43.24,1.02.63,1.92,1.17,2.7.88,1.27,1.93,1.93,3.22,1.54,1.01-.31,1.73-1.17,2.24-2.37.86-2.05.9-4.25.47-6.49-.28-1.49-.88-2.71-1.9-3.46-1.56-1.15-3.2-.78-4.3.99-.58.92-.9,2.04-1.11,3.21-.04.19-.04.39-.14.58-.05-.32-.09-.6-.14-.87-.55-2.73-2.16-4.76-4.43-4.13-1.37.38-2,1.15-2.29,3.01-.09.59-.17,1.19-.22,1.79-.13,1.41-.28,2.82-.22,4.24.08,1.77.22,3.54.38,5.3.37,4.04.85,8.05,1.64,11.99.2,1.02.42,2.03.86,2.92.85,1.68,2.24,1.65,3.03-.05.42-.9.61-1.91.73-2.95.63-5.49.8-11.02.82-16.57,0-.58-.03-1.16-.05-1.81ZM109.59,108.68c-.07-.46-.1-.78-.16-1.1-.49-2.47-2.03-4.75-4.43-4.07-1.27.36-2.09,1.25-2.28,3.08-.07.67-.17,1.34-.23,2.01-.12,1.36-.25,2.74-.18,4.11.09,1.84.25,3.68.41,5.52.32,3.59.77,7.15,1.41,10.66.22,1.19.42,2.4.87,3.49.27.67.63,1.21,1.17,1.49.78.41,1.65-.14,2.13-1.34.48-1.2.66-2.52.78-3.85.51-5.64.76-11.3.65-16.98,0-.09-.05-.21.06-.25.13.05.12.21.15.33.28,1.2.77,2.23,1.44,3.09.78.99,1.68,1.44,2.74,1.26,1.05-.18,1.81-.97,2.33-2.16,1.21-2.8,1.19-5.7.03-8.52-.93-2.26-3.17-3.01-4.76-1.73-1,.8-1.48,2.1-1.82,3.53-.1.44-.18.89-.3,1.46ZM54.46,113.47s0,0,.01,0c0,.13,0,.27.01.4.08,1.69.89,3.08,2,3.39.37.1.49,0,.5-.5.02-.57.02-1.15-.04-1.72-.07-.68-.19-1.37-.07-2.07.04-.25-.08-.31-.21-.37-.53-.28-1.07-.49-1.64-.56-.51-.07-.51-.07-.55.65-.02.26-.02.53-.02.8ZM143.06,109.77c-.15.65-.29,1.29-.28,2.08.33-.71.46-1.36.28-2.08Z"/>
    <path class="st0" d="M90.19,111.92c.76-.09,1.43.24,2.01.96.26.32.39.71.42,1.16.13,1.97.28,3.94.54,5.89.1.78-.19,1.35-.58,1.82-.8.96-1.73,1.49-2.82,1.42-.62-.04-1.14-.45-1.63-.95-1.86-1.9-2.27-5.79-.88-8.25.75-1.32,1.71-2,2.94-2.05ZM91.77,118.76c-.14-1.53-.26-2.97-.41-4.41-.05-.49-.37-.65-.69-.74-.2-.06-.32.04-.38.33-.36,1.76.24,3.81,1.48,4.83Z"/>
  </g>
  <polyline class="st1" points="-254.5 281.7 -254.5 -253.3 414.5 -253.3"/>
</svg>