<?xml version="1.0" encoding="UTF-8"?>
<svg id="Capa_1" xmlns="http://www.w3.org/2000/svg" version="1.1" viewBox="0 0 241 223">
  <!-- Generator: Adobe Illustrator 29.6.1, SVG Export Plug-In . SVG Version: 2.1.1 Build 9)  -->
  <defs>
    <style>
      .st0 {
        fill: #e0528b;
        fill-rule: evenodd;
      }
    </style>
  </defs>
  <path class="st0" d="M47.72,192.43c-1.34.13-2.79-.18-4.23-.53-1.62-.39-1.91-.81-1.71-2.46.46-3.88,1.15-7.71,2.21-11.46,2.82-10.03,7.68-18.92,14.48-26.7,4.77-5.46,10.48-9.76,16.49-13.66,6.68-4.34,13.8-7.69,21.37-10.06,1.27-.4,2.37-.3,3.51.42,1.04.66,2.2,1.12,3.3,1.67,1.7.83,1.72.89,1.19,2.79-2.02,7.3-5.04,14.16-8.8,20.69-4.67,8.1-10.24,15.5-16.8,22.08-6.77,6.79-14.34,12.39-23.29,15.82-2.43.93-4.95,1.5-7.72,1.41Z"/>
  <path class="st0" d="M155.99,78.71c-.89-.8-1.62-1.45-2.41-2.15-3.41,3.06-6.73,6.18-10.4,8.88-1,.74-2.04,1.41-3.19,1.86-1.37.54-2,.03-1.74-1.46.39-2.27,1.5-4.25,2.65-6.18,5.55-9.33,11.86-18.09,18.88-26.33,6.26-7.36,14.18-12.22,22.69-16.22,8.74-4.1,17.98-6.41,27.48-7.67.4-.05.82-.11,1.3.14-.16,1.77-.76,3.47-1.28,5.17-3.81,12.43-10.11,23.43-18.46,33.21-.96,1.13-2.27,1.97-3.41,2.91-1.58,1.3-3.62,1.93-4.9,3.67-1.06,1.44-2.82,1.94-4.41,2.43-1.4.44-2.24,1.65-3.6,2.09-2.84.92-5.74,1.35-8.7,1.42-1.11.03-1.86.5-2.52,1.31-2.91,3.56-6.42,6.34-10.45,8.44-1.17.61-2.33,1.25-3.6,1.59-.59.16-1.25.32-1.73-.24-.48-.55-.26-1.2-.05-1.79,1.04-2.85,3.05-5.04,4.85-7.36.96-1.24,1.97-2.45,2.98-3.71ZM164.1,71.69c.42.07.77-.22,1.13-.5,1.78-1.35,3.56-2.69,5.34-4.03,5.51-4.15,11.01-8.31,16.53-12.46.63-.48,1.16-1,.92-1.87-.21-.77-.82-1.14-1.55-1.26-.66-.11-1.19.26-1.68.63-7.25,5.34-14.5,10.69-21.74,16.04-.67.49-1.36,1.04-1.07,2.06.3,1.02,1.19,1.17,2.12,1.39Z"/>
  <path class="st0" d="M197.64,197.25c-4.52-.67-8.79-1.79-12.96-3.31-10.86-3.95-20.01-10.43-27.58-19.32-1.96-2.3-4.34-4.23-6.38-6.47-8.19-8.96-13.14-19.52-14.58-31.73-.22-1.87-.34-3.75-.49-5.62-.01-.15.06-.32.1-.56,2.2.24,4.28.84,6.35,1.48,9.6,2.99,18.01,8.26,26.21,14.05,7.57,5.35,12.66,12.81,17.51,20.49,5.95,9.43,9.85,19.74,11.82,30.99Z"/>
  <path class="st0" d="M119.6,223c-2.22-3.55-4.25-7.17-6.19-10.85-3.42-6.47-6.33-13.15-8.13-20.29-2.12-8.4-1.97-16.84-.27-25.28,1.78-8.84,4.56-17.4,7.19-26,.61-2,1.24-3.99,1.83-6,.22-.76.61-1.18,1.43-1.27,1.46-.17,2.91-.46,4.36-.7.68-.11,1.08.04,1.4.8,5.67,13.73,9.77,27.91,11.3,42.78,1.05,10.13.71,20.18-2.48,29.95-2.11,6.47-5.42,12.19-10.45,16.87Z"/>
  <path class="st0" d="M239.81,143.39c-11.69,6.63-23.91,7.36-36.7,4.78.99-3.54,1.94-6.94,2.91-10.43-1.7-.57-3.32-1.11-5.01-1.67-.77,2.74-1.5,5.39-2.25,8.04-.76,2.67-.8,2.72-3.47,2.47-7.69-.71-15.09-2.56-21.97-6.23-4.31-2.3-3.5-1.4-2.44-5.59.46-1.83.98-3.64,1.47-5.46.03-.11,0-.24,0-.43-1.94-.73-3.89-1.47-6-2.27-.64,2.8-1.27,5.54-1.95,8.47-4.86-3.92-10.34-6.65-14.68-11-1.33-1.33-2.09-2.72-1.49-4.7.28-.95.3-1.97.46-3.07,4.89-.51,9.76-1.09,14.64-1.5,2.81-.24,5.65-.14,8.48-.29,11.93-.65,23.15,2.39,34.06,6.92,11.77,4.88,22.31,11.83,31.97,20.22.61.54,1.23,1.07,1.99,1.73Z"/>
  <path class="st0" d="M153.4,0c2.83,6.05,4.52,12.33,5.3,18.87.69,5.87.51,11.72-.48,17.55-.23,1.33-.62,2.6-1.22,3.81-5.63,11.42-11.3,22.83-17.8,33.77-1.74,2.94-3.42,5.94-5.63,8.55-.49.58-1,1.61-1.81,1.2-.83-.42-.45-1.49-.29-2.3,1.03-5.33,2.89-10.39,4.64-15.49.24-.71.48-1.42.74-2.2-1.8-.85-3.54-1.67-5.37-2.53-1.08,2.92-2.11,5.77-3.19,8.6-.88,2.31-1.87,4.57-3.22,6.63-.54.83-1.08,2.04-2.3,1.76-1.12-.25-1.2-1.49-1.38-2.45-.58-3.07-.68-6.18-.54-9.28.26-5.98.68-11.96,1.46-17.9.7-5.32,1.35-10.66,2.91-15.8,1.46-4.83,4.36-8.91,7.17-12.98,5.47-7.91,12.28-14.39,20.38-19.45.17-.11.36-.2.64-.36ZM136.65,56.06c1.08-.09,1.76-.7,2.11-1.84,1.35-4.43,2.74-8.86,4.13-13.28,1.13-3.63,2.29-7.25,3.42-10.89.51-1.63-.36-2.73-1.94-2.52-.99.13-1.33.88-1.59,1.7-1.07,3.34-2.13,6.69-3.21,10.03-1.53,4.73-3.09,9.45-4.6,14.19-.51,1.6.15,2.62,1.68,2.61Z"/>
  <path class="st0" d="M35.54,26.53c3.15-.09,6.13.51,9.09,1.12,11.75,2.44,21.99,8.01,31.15,15.83,6.78,5.79,12.56,12.42,16.57,20.52,3.08,6.21,5.29,12.72,5.8,19.74.12,1.64.08,3.26.11,5-2.69-.35-5.22-1.04-7.73-1.76-11.68-3.33-22.14-9.11-31.69-16.7-2.23-1.77-3.56-4.26-5.15-6.53-6.64-9.48-12.24-19.55-16.13-30.56-.76-2.16-1.46-4.34-2.02-6.67ZM58.07,44.58c-.98.11-1.73.6-2.1,1.52-.47,1.16.49,1.79,1.1,2.44,7.11,7.52,14.24,15.01,21.37,22.52.51.53,1.1.87,1.82.96,1.02.12,1.72-.4,2.19-1.27.45-.84.32-1.59-.35-2.28-7.54-7.74-15.08-15.49-22.61-23.25-.41-.43-.89-.56-1.41-.64Z"/>
  <path class="st0" d="M103.95,59.72c.87,3.32,1.72,6.51,2.55,9.7.8,3.08,1.44,6.19,1.77,9.37.07.67.15,1.32-.49,1.66-.76.41-1.22-.22-1.62-.75-2.76-3.61-4.98-7.58-7.05-11.64-3.52-6.91-7-13.85-10.59-20.74-1.12-2.16-1.26-4.49-1.56-6.8-.68-5.11-1.13-10.26-1.03-15.42.14-7.21,1.06-14.29,3.6-21.07.8-2.15,1.47-2.52,3.77-2.36,3.44.24,6.1,1.99,8.52,4.32,3.7,3.58,6.29,7.94,8.51,12.55,3.29,6.84,5.77,13.96,7.27,21.44.5,2.49.12,4.81-.62,7.17-.92,2.95-1.75,5.93-2.64,8.9-.32,1.06-.16,2.07.22,3.07,2.03,5.37,2.34,10.84.93,16.41-.3,1.18-.61,2.58-2.01,2.7-1.45.13-1.94-1.3-2.37-2.38-1.75-4.43-2.4-9.13-2.99-13.84-.06-.46-.1-.92-.17-1.38-.08-.57-.37-.92-.97-.92-.98,0-1.95,0-3.03,0ZM106.64,51.24c-.02-.08-.08-.41-.16-.73-1.36-5.87-2.72-11.74-4.09-17.61-.54-2.32-1.07-4.65-1.67-6.96-.28-1.09-1.23-1.63-2.15-1.38-1.14.31-1.53,1-1.3,2.29.37,2.1.81,4.2,1.31,6.26,1.06,4.32,1.91,8.69,2.94,13.02.47,1.95.84,3.93,1.31,5.87.28,1.15,1.19,1.79,2.15,1.65.98-.15,1.68-1.05,1.66-2.41Z"/>
  <path class="st0" d="M87.23,117.76c-1.88,4.42-5.11,7.65-8.82,10.44-5.74,4.31-12.35,6.67-19.09,8.66-8.64,2.55-17.45,4.09-26.46,4.45-6.84.28-13.61.1-20.22-1.94-4.27-1.32-8.28-3.17-11.72-6.16-.28-.24-.54-.5-.92-.84,8.51-4.88,16.92-9.72,25.49-14.64,1.14,3.4,2.25,6.71,3.41,10.14,1.53-.43,3-.84,4.63-1.29-1.24-3.53-2.43-6.94-3.66-10.44,9.62-3.74,19.42-6.08,29.95-5.45.49,3.39,1,6.84,1.52,10.43,8.6-1.2,17.14-2.39,25.68-3.58.06.07.13.15.2.22Z"/>
  <path class="st0" d="M209.01,86.82c-.84-2.68-1.66-5.27-2.5-7.95,1.9-.82,3.86-.84,5.79-.95,9.74-.54,18.92,1.87,27.84,5.64,1.04.44.98,1.13.67,1.93-1.07,2.77-2.66,5.19-4.78,7.23-5.44,5.25-12.12,8.18-19.07,10.59-1.58.55-3.18,1.07-4.93,1.66-.5-2.63-.98-5.12-1.49-7.78-1.91.58-3.77,1.15-5.63,1.71-8.1,2.44-16.21,4.84-24.51,6.5-9.28,1.86-18.52,2.2-27.78-.07-1.85-.45-2.33-1.05-2.15-2.99.02-.25.13-.51.1-.74-.51-3.59,1.73-5.51,4.26-7.13,4.24-2.71,9-3.68,13.92-4.06,5.31-.4,10.6-.91,15.91-1.39,6.4-.57,12.8-1.17,19.2-1.74,1.67-.15,3.34-.29,5.16-.44Z"/>
  <path class="st0" d="M140.7,108.29c-.21,5.92-3.69,11.47-10.1,14.88-7.26,3.87-14.84,4.25-22.17.28-6.39-3.47-10.29-9-10.49-16.6-.16-6.1,2.53-11.01,7.21-14.72,9.01-7.13,21.97-6.47,30.19,1.61,3.54,3.48,5.39,7.84,5.36,14.55Z"/>
  <path class="st0" d="M6.68,75.84c21.34,6.12,42.56,12.21,63.84,18.32.65-2.53,1.28-4.99,1.96-7.65,6.88,3.77,12.85,8.5,17.56,14.82-.3.5-.73.61-1.16.75-8.44,2.66-17.07,4.11-25.92,3.85-9.3-.27-18.24-2.36-26.87-5.86-7.12-2.88-13.88-6.44-19.99-11.19-3.9-3.03-7.19-6.61-9.09-11.34-.19-.46-.41-.91-.33-1.69Z"/>
  <path class="st0" d="M87.03,117.54c.1-.01.2-.03.29-.04-.03.08-.07.17-.1.26-.06-.07-.13-.15-.2-.22Z"/>
</svg>