<?xml version="1.0" encoding="UTF-8"?>
<svg id="Capa_1" xmlns="http://www.w3.org/2000/svg" version="1.1" viewBox="0 0 690 282">
  <!-- Generator: Adobe Illustrator 29.6.1, SVG Export Plug-In . SVG Version: 2.1.1 Build 9)  -->
  <defs>
    <style>
      .st0 {
        fill: #e0528b;
        fill-rule: evenodd;
      }
    </style>
  </defs>
  <path class="st0" d="M683.62,185.01c-.37,1.5-.69,3.03-1.11,4.51-2.33,8.19-6.73,14.48-13.38,18.69-1.85,1.17-3.61,2.48-5.31,3.92-4.2,3.57-8.96,5.43-14.17,5.96-5.43.55-10.83.56-16.14-1.01-10.42-3.09-16.87-10.63-19.39-22.5-.64-3.01-1.05-6.06-1.44-9.19-.28,1.39-.55,2.79-.84,4.18-1,4.85-1.9,9.74-3.72,14.31-1.13,2.83-2.46,5.54-4.87,7.29-1.06.77-2.23,1.18-3.48,1.17-.69,0-1.08.3-1.47.97-1.48,2.56-3.29,4.61-6.19,5-3.07.41-5.33-1.09-7.23-3.61-1.64-2.19-2.6-4.78-3.44-7.45-2.63-8.42-4.09-17.14-5.07-25.96-.82-7.42-1.52-14.86-2.28-22.29-.02-.18-.11-.35-.21-.63-.84.69-1.24,1.69-1.85,2.47-1.86,2.36-4.03,4.12-6.77,4.92-.47.14-.9.35-1.23.78-3.04,4.09-6.9,6.07-11.62,5.81-.13,0-.26.03-.49.05-.23,2.46-.46,4.9-.7,7.34-.67,6.87-1.44,13.72-2.97,20.44-.76,3.34-1.89,6.45-4.12,8.92-1.36,1.5-2.93,2.55-4.82,2.81-.98.13-1.6.65-2.14,1.54-1.36,2.25-3.22,3.78-5.58,4.38-4.02,1.03-7.8-.87-10.09-4.95-1.59-2.82-2.26-6.01-2.99-9.19-.1-.44-.2-.88-.33-1.46-.36.38-.41.77-.51,1.15-.73,2.88-1.91,5.44-4.12,7.25-1.13.92-2.39,1.47-3.78,1.61-.88.09-1.46.48-1.95,1.37-2.12,3.85-5.61,5.48-9.38,4.47-2.69-.72-4.09-3.03-5.21-5.64-.39-.9-.71-1.83-1.08-2.78-1.3.42-2.35,1.16-3.34,2.16-4.13,4.16-9.03,6.14-14.52,6.49-4.86.31-9.51-.52-13.89-2.92-6.07-3.32-10.23-8.75-12.99-15.61-2.38-5.9-3.42-12.17-3.76-18.61-.24-4.48-.28-8.96.06-13.58-.84.74-1.56,1.45-2.35,2.06-2.43,1.91-5.14,2.79-8.08,2.65-.79-.04-1.05.24-1.12,1.14-.75,8.88-1.57,17.75-3.46,26.44-.66,3.02-1.64,5.87-3.46,8.3-1.54,2.06-3.41,3.39-5.78,3.76-.76.12-1.28.52-1.73,1.22-4.63,7.2-12.85,6.45-16.47-1.48-1.39-3.05-2.02-6.38-2.73-9.69-.17-.78-.4-1.54-.65-2.5-1.16,2.1-2.41,3.88-3.86,5.46-1.88,2.05-3.97,3.79-6.42,4.85-1.24.53-2.09,1.55-3.05,2.46-3.85,3.66-8.41,5.27-13.31,5.88-9.02,1.13-17.26-1.14-24.62-7.23-4.55-3.76-7.48-8.8-8.96-14.94-.3-1.22-.6-2.44-.97-3.93-.53,2.92-.96,5.59-1.52,8.23-.71,3.31-1.62,6.55-3.58,9.25-1.35,1.85-3.05,2.96-5.23,2.84-.85-.05-1.35.27-1.77,1.17-1.13,2.41-2.75,4.26-5.23,4.76-3.38.7-6.32-1.44-7.61-5.57-1.18-3.77-1.79-7.7-2.44-11.61-1.93-11.65-2.8-23.46-3.71-35.25-.55-7.11-1.12-14.22-1.61-21.34-.29-4.16-.46-8.33-.64-12.5-.14-3.36-.21-6.72-.32-10.08-.04-1.16.22-2.31.06-3.62-.61,1.28-1.12,2.49-1.74,3.63-1.96,3.6-4.66,6.36-7.89,8.41-2.17,1.38-4.26,2.87-6.26,4.56-2.88,2.44-6.16,4.08-9.61,5.24-.28.09-.62.07-.86.46.94.55,1.89,1.02,2.76,1.63,4.44,3.11,7.15,7.57,7.68,13.49.43,4.76-.43,9.18-3.61,12.68-1.14,1.25-2.46,2.19-3.91,2.91-1.67.82-3.17,1.92-4.55,3.28-3.69,3.65-8.17,5.08-13.07,5.81-.17,2.01-.37,4.15-.54,6.29-.45,5.54-.74,11.11-2.52,16.37-1.03,3.06-2.31,5.95-4.86,7.82-1.18.87-2.46,1.32-3.83,1.46-.56.06-.99.26-1.26.82-3.82,7.77-13.83,6.59-17.25-1.43-1.28-3-1.83-6.2-2.28-9.45-.98-6.98-1.56-14.01-2.02-21.05-.36-5.47-.55-10.95-.85-16.42-.4-7.32-.62-14.66-1.21-21.97-.02-.27-.02-.54-.02-.81,0-2.24-.66-3.9-2.37-5.37-6.13-5.27-9.75-12.29-10.49-21.05-.33-3.93-.43-7.88.91-11.66,1.6-4.53,4.04-7.96,8.67-8.55.6-.08.91-.62,1.22-1.13,1.56-2.56,3.58-4.35,6.38-4.74,1.67-.23,3.34-.05,4.98.42,1.84.52,3.38.13,4.64-1.65,2-2.83,4.7-4.23,7.84-4.67,4.43-.62,8.62-.02,12.42,2.9,1.89,1.45,3.23,3.42,4.23,5.7.77,1.74.75,1.72,2.43,1.68,5.12-.15,10.16-1.04,15.12-2.47,2.44-.7,4.86-1.54,7.2-2.58,5.04-2.24,9.68-.28,12.54,4.65,1.95,3.36,3,7.07,3.29,11.12.5-.14.46-.69.58-1.06,1.02-3.3,2.29-6.45,4.3-9.15,1.64-2.2,3.7-3.63,6.14-4.36.73-.21,1.29-.59,1.77-1.26,2.5-3.56,5.88-5.15,9.79-5.36,6.63-.35,11.06,3.43,14.11,9.79,2.16,4.49,3.18,9.34,3.57,14.39.45,5.72.05,11.43-.26,17.14-.43,7.91-1.4,15.74-2.5,23.56-.01.1.02.22.05.47.93-1.64,1.75-3.23,2.7-4.72,2.84-4.48,6.17-8.39,10.65-10.74,1.93-1.01,3.42-2.62,5.13-3.94,7.4-5.73,15.24-6.19,23.45-2.64,3.84,1.67,6.83,4.29,8.1,8.93.26.93.41,1.87.37,2.85-.03.84.24,1.39,1.03,1.58.87.22,1.62.8,2.42,1.33.48-1.01.55-2.15.9-3.2,1.46-4.42,4.33-7,8.29-8.12.47-.13.9-.24,1.2-.75,2.29-3.85,5.73-5.29,9.58-5.76,4.01-.48,7.71.4,10.96,3.28,1.05.93,1.89,2.1,2.99,3.29,3.73-5.13,8.36-7.55,14.25-6.39,5.8,1.14,9.53,5.05,11.86,11.07,1.89-1.53,3.89-2.59,5.84-3.74,1.39-.82,2.41-2.36,3.77-3.36,3.67-2.7,7.69-3.99,12.04-4.2,2.91-.14,5.79-.06,8.63.73,3.22.9,6.15,2.48,8.55,5.16.83.93,1.14.91,1.88-.12,3.22-4.52,7.54-5.9,12.41-5.46,4.87.44,8.51,3.16,10.84,8.08.06.13.16.24.29.44,1.56-1.17,3.23-1.99,5.04-2.43.24-.06.49-.31.63-.55,2.33-3.8,5.71-5.3,9.6-5.77,4.18-.51,8,.43,11.28,3.54.6.57,1.16,1.21,1.7,1.85.97,1.14,1.12,1.16,2.04-.06,1.7-2.28,3.8-3.88,6.31-4.73,4.04-1.38,7.95-.89,11.66,1.41.54.34,1.03.34,1.54.02.63-.39,1.3-.75,2.01-.81.99-.08,1.24-.73,1.24-1.7,0-2.09.2-4.16.52-6.22.61-3.88,1.6-7.59,3.96-10.64,1.61-2.09,3.62-3.51,5.94-4.34.93-.33,1.69-.85,2.35-1.71,2.32-3.03,5.36-4.55,8.8-5.15,4.51-.79,8.96-.73,13.3,1.13,3.63,1.56,5.94,4.49,7.09,8.66,1.09,3.95,1.48,8.01,1.5,12.13,0,1.23.29,1.87,1.45,2.17,4.61,1.21,6.83,4.84,7.49,9.93.32,2.48.47,4.97.41,7.55.51-.07.75-.42,1.03-.66,1.12-.96,2.28-1.8,3.58-2.43,1.42-.68,2.65-1.75,3.84-2.84,4.64-4.21,9.99-6.44,15.85-6.99,6.4-.61,12.71.06,18.56,3.35,7.53,4.23,11.88,10.96,12.02,20.77.08,5.22-.82,10.14-3.35,14.58-2.06,3.62-4.84,6.34-8.18,8.35-1.23.74-2.49,1.43-3.56,2.46-.1.08-.2.16-.3.23-.15.06-.3.13-.33.34-.13.02-.26.03-.31.21.16.18.3.05.44-.04.12-.1.24-.2.36-.3.14-.08.28-.16.42-.24,1.84-1.07,3.57-2.37,5.49-3.29,2.06-.99,4.17-1.64,6.43-1.06,2.56.66,4.21,2.52,5.23,5.19.12.32.04.77.42.95v9.77ZM251.88,155.34c-.02-.09-.08-.2-.07-.3.44-4.69.96-9.36,1.67-14,.16-1.03.63-1.45,1.48-1.55,1.93-.22,3.85-.5,5.78-.69,5.5-.55,10.97-1.24,16.28-3.05,3.83-1.31,7.3-3.36,10.23-6.51,2.9-3.13,4.63-6.94,5.12-11.43.54-4.95.27-9.83-1.86-14.32-2.22-4.66-4.88-6.32-9.49-4.3-8.13,3.56-16.6,5.05-25.28,5.17-2.06.03-2.1.02-2.77-2.18-1.13-3.69-3.19-6.34-6.49-7.63-1.83-.72-3.73-.84-5.65-.77-2.55.09-4.78,1.03-6.57,3.18-.9,1.08-1.57,2.34-2.26,3.58-.45.81-.95,1.05-1.79.81-1.88-.54-3.79-.97-5.69-1.42-2.58-.62-4.61.32-6.09,2.8-.83,1.39-1.54,2.86-1.8,4.51-1.17,7.43.15,14.26,3.97,20.46,1.79,2.9,4.21,5.02,6.69,7.09,1.04.87,1.64,2.06,1.74,3.53.35,5.47.73,10.94,1.02,16.41.44,8.18.82,16.35,1.24,24.53.4,7.75,1.1,15.46,2.16,23.13.38,2.75.78,5.51,2.11,7.93,1.42,2.57,3.41,3.93,6.16,3.67,2.3-.21,3.53-1.94,4.51-4.03.93-1.99,1.53-4.12,1.99-6.31.96-4.57,1.12-9.25,1.5-13.9.48-5.8.83-11.62,1.16-17.44.1-1.78.19-3.56.55-5.63,1.23,2.64,2.84,4.54,4.68,6.2,2.36,2.12,4.92,3.46,8.03,2.77,1.34-.3,2.66-.68,3.9-1.32,2.14-1.1,4.35-2.15,5.71-4.5,2.95-5.06,1.46-12.86-3.09-16.8-2.87-2.48-6.11-3.34-9.62-3.03-3.48.3-6.6,1.5-8.66,5.02-.11.19-.24.38-.52.32ZM488.14,144.94c-.19-.14-.27-.16-.3-.22-.14-.26-.27-.54-.4-.81-2.39-5.05-5.98-8.35-10.95-9.55-2.34-.57-4.72-.59-7.11-.46-5.94.32-10.78,3.03-14.43,8.35-3.17,4.62-4.68,10.09-5.92,15.64-1.63,7.29-1.97,14.71-1.57,22.2.29,5.47,1.02,10.82,2.79,15.94,1.81,5.25,4.45,9.82,8.55,13.13,4.43,3.57,9.36,5.14,14.8,4.82,6.75-.4,12.19-3.43,16.02-9.89,1.41-2.39,2.34-5.04,3.39-7.77.66,2.24,1.07,4.43,1.52,6.6.64,3.09,1.37,6.15,2.89,8.86,1.54,2.74,4.19,3.02,6.24.75,1.35-1.5,1.97-3.4,2.39-5.41,1.47-7.03,2.57-14.15,3.42-21.3.78-6.58,1.53-13.16,1.59-19.82.03-4.14-.02-8.28-.31-12.4-.25-3.57-.42-7.16-1.39-10.62-1.4-4.99-4.03-8.34-8.91-8.79-3.83-.35-7.04.9-9.44,4.46-1.28,1.89-2.17,4-2.84,6.29ZM616.35,177.84c-.06,3.96.29,7.87.86,11.76.56,3.86,1.35,7.64,3.01,11.12,2.98,6.24,7.64,10.02,13.58,11.91,4.51,1.44,9.11,1.71,13.76,1.3,2.62-.23,5.22-.56,7.7-1.6,7.83-3.3,12.97-9.53,15.47-18.56.95-3.45,1.62-6.96.98-10.6-.57-3.24-2.6-4.57-5.37-3.57-2.79,1-5.21,2.84-7.73,4.42-3.6,2.27-7.34,3.68-11.5,3.19-4.09-.48-7.77-2.04-10.61-5.54-3.67-4.54-4.48-10.1-4.08-15.98.28-4.22,1.58-8.13,3.23-11.88,1.81-4.09,4.61-6.24,8.78-5.82,2.64.27,4.43,1.91,5.04,4.84,1.04,5.04-.37,9.11-3.79,12.41-1.06,1.02-2.13,2.05-2.9,3.41-.89,1.58-.78,3.32.34,4.67.85,1.03,1.86,1.79,3,2.37,2.1,1.07,4.22.83,6.39.27,4.46-1.17,8.34-3.52,11.6-7.15,2.82-3.14,4.15-7.09,4.59-11.48.85-8.39-1.7-14.95-8.16-19.32-5.74-3.88-12.08-4.67-18.55-3.88-10.26,1.27-17.2,7.72-21.36,18.32-3.18,8.1-4.21,16.63-4.28,25.38ZM576.86,128.43c-.75.09-1.45.19-2.16.25-3.47.29-5.59,2.1-6.47,5.79-1.06,4.45-1.11,8.93.09,13.37.78,2.89,2.41,4.88,5,5.77,1.01.35,2.05.59,3.11.55.79-.03,1.08.42,1.16,1.23.81,8.09,1.58,16.18,2.47,24.26.95,8.55,2.28,17.02,4.74,25.2.79,2.63,1.65,5.24,3.33,7.37,1.81,2.3,3.92,2.42,5.82.23,1.7-1.95,2.61-4.44,3.33-6.97,3.16-11.15,4.78-22.67,6.14-34.23.68-5.73,1.28-11.46,1.92-17.26.54-.05,1.04-.12,1.55-.16,3.8-.23,6.09-2.34,6.75-6.34.69-4.19.59-8.38-.28-12.52-.85-4.03-2.3-5.4-5.95-5.97-.9-.14-1.84.2-2.75-.32,0-.86,0-1.71,0-2.56.04-4.23-.18-8.42-1.04-12.55-.86-4.13-2.98-6.85-6.7-7.84-2.27-.61-4.57-.93-6.89-.74-2.25.18-4.48.56-6.53,1.7-3.43,1.9-4.88,5.38-5.71,9.37-.83,4.03-.78,8.13-.92,12.4ZM392.19,178.06c-.04-1.97.05-3.95-.09-5.92-.38-5.34-1.2-10.55-3.17-15.47-.97-2.42-2.13-4.67-4.22-6.09-1.69-1.14-3.64-.66-4.81,1.12-.99,1.49-1.12,3.17-.99,4.95.21,2.84.48,5.71-.18,8.51-1.31,5.52-4.63,8.53-9.49,9.54-5.28,1.1-10.03-1.51-12.25-6.77-1.82-4.31-2.04-8.73-.75-13.29,1.69-5.97,5.34-8.57,10.56-8.62,3.45-.03,6.73.9,9.9,2.43,1.31.63,2.33.23,3.09-1.13,1.12-2.01.7-5.42-1.12-7.35-3.69-3.93-8.32-5.31-13.17-5.18-6.76.19-12.17,3.82-16.38,9.75-3.14,4.43-5.12,9.56-6.75,14.87-3.29,10.73-3.76,21.66-1.65,32.76,1.61,8.51,5.89,14.59,12.8,18.37,5.75,3.15,11.76,4.05,18.08,3.14,5.12-.74,9.41-3.08,12.84-7.48,3.15-4.05,5.15-8.78,6.47-13.91,1.2-4.65,1.37-9.44,1.27-14.25ZM332.82,119.93c.03-2.17-.03-4.33-.21-6.5-.44-5.27-1.66-10.23-4.46-14.58-3.75-5.81-10.63-6.98-15.12-2.41-2.28,2.32-3.67,5.39-4.37,8.76-1.18,5.7-1.58,11.52-1.67,17.36-.06,4.25.2,8.5.38,12.74.25,6.13.72,12.24,1.17,18.36.48,6.54,1.13,13.06,1.6,19.59.83,11.55,2.08,23.04,4.33,34.36.31,1.58.69,3.14,1.42,4.57,1.13,2.21,3.03,2.51,4.43.66.62-.82,1.15-1.72,1.52-2.73,1.25-3.37,1.95-6.9,2.47-10.49.91-6.2,1.3-12.48,2.1-18.7,1.56-12.22,3.21-24.43,4.75-36.65,1.01-8.07,1.61-16.19,1.68-24.35ZM421.31,155.08c.63.37.62.8.71,1.15.66,2.68,1.8,5.08,3.42,7.17,2.65,3.41,5.88,5.25,9.97,4.37,3.2-.69,5.54-2.85,7.24-5.93,2.89-5.26,3.21-10.98,2.1-16.87-.74-3.93-2.51-7.17-5.64-9.25-4.77-3.17-9.95-2.39-13.56,2.09-1.89,2.35-3,5.22-3.79,8.25-.13.49-.17,1.02-.5,1.51-.13-.84-.22-1.57-.36-2.28-1.47-7.19-6.34-12.66-13.51-11.28-4.32.83-6.38,2.78-7.46,7.59-.34,1.53-.63,3.09-.86,4.65-.54,3.65-1.15,7.32-1.08,11.02.08,4.63.36,9.26.7,13.88.78,10.58,1.91,21.11,3.99,31.47.54,2.67,1.11,5.35,2.43,7.71,2.5,4.47,6.87,4.57,9.51.22,1.4-2.3,2.11-4.92,2.58-7.62,2.49-14.24,3.56-28.65,4.12-43.13.06-1.52,0-3.04,0-4.72ZM540.87,148.04c-.16-1.19-.24-2.06-.41-2.89-1.31-6.51-5.91-12.62-13.51-11.12-4.01.79-6.67,3.02-7.45,7.77-.29,1.74-.67,3.46-.92,5.22-.51,3.54-1.03,7.11-.94,10.7.12,4.82.43,9.63.77,14.44.67,9.39,1.73,18.73,3.41,27.96.57,3.13,1.1,6.3,2.39,9.2.79,1.77,1.87,3.23,3.52,4.03,2.41,1.15,5.18-.17,6.8-3.25,1.62-3.07,2.32-6.5,2.82-9.96,2.14-14.64,3.44-29.38,3.63-44.23,0-.23-.14-.56.21-.65.39.14.35.57.43.87.77,3.17,2.19,5.89,4.22,8.21,2.34,2.67,5.14,3.95,8.48,3.59,3.3-.36,5.77-2.32,7.49-5.37,4.06-7.18,4.25-14.73.89-22.23-2.69-5.99-9.65-8.2-14.75-5.06-3.2,1.97-4.84,5.31-6.04,9.01-.37,1.14-.65,2.3-1.06,3.77ZM367.54,154.29s.03,0,.04,0c0,.35,0,.7,0,1.04.08,4.43,2.5,8.13,5.94,9.06,1.16.31,1.53.06,1.63-1.26.11-1.5.17-2.99.04-4.5-.16-1.8-.46-3.61-.01-5.41.16-.64-.23-.81-.61-1-1.63-.78-3.31-1.39-5.08-1.65-1.59-.23-1.6-.23-1.8,1.62-.07.69-.1,1.38-.15,2.07ZM645.69,154.68c-.52,1.67-1.04,3.33-1.07,5.4,1.11-1.83,1.56-3.5,1.07-5.4Z"/>
  <path class="st0" d="M206.52,272.98c.08,0,.16.01.24.03,1.36-.58,2.74-1.11,4.1-1.7-1.38-4.14-3-8.16-4.9-12.06-5.27-10.81-12.32-20-20.29-28.33-6.18-6.46-12.75-12.42-19.25-18.47-8.25-7.68-16.34-15.55-23.6-24.46-5.31-6.52-10.07-13.51-14.29-20.98-.41-.72-.86-1.39-1.41-1.98-1.37-1.46-3.9-1.79-5.32-.69-1.28.99-1.53,2.62-.69,5.02,2.41,6.91,5.7,13.26,9.7,19.12,3.71,5.44,8.35,9.89,12.8,14.52,5.04,5.24,10.27,10.24,15.47,15.28,6.36,6.17,12.78,12.28,19.12,18.49,2.68,2.62,5.5,5.07,8,7.92.07.1.28.14.15.3-.08.11-.25.07-.32-.1-2.11-.72-4.22-1.45-6.34-2.17-7.38-2.49-14.94-4.14-22.48-5.81-5.97-1.33-11.85-1.16-17.62,1.19-5.06,2.06-9.2,5.65-12.94,9.91-.35.4-.78.83-.87,1.54,2.72.18,5.37.26,8,.55,8.76.94,17.39,2.7,25.93,5.08.8.22,1.61.36,2.42.13,4.7-1.31,9.23-.76,13.69,1.35,3.43,1.63,6.81.85,10.11-.73,2.51-1.2,4.8-2.87,7.22-4.33,5.08,6.32,8.36,13.67,10.82,21.57.83-.16,1.68-.18,2.55-.18Z"/>
  <path class="st0" d="M46.04,186.17c-1.12.12-2.32-.17-3.52-.49-1.35-.36-1.59-.74-1.42-2.27.38-3.57.95-7.1,1.83-10.56,2.35-9.25,6.39-17.44,12.03-24.6,3.97-5.03,8.71-8.99,13.71-12.59,5.55-4,11.47-7.09,17.76-9.27,1.05-.36,1.97-.28,2.92.39.87.6,1.83,1.03,2.75,1.54,1.41.77,1.43.82.99,2.57-1.68,6.73-4.19,13.05-7.31,19.07-3.88,7.47-8.51,14.28-13.96,20.35-5.62,6.26-11.92,11.41-19.36,14.58-2.02.86-4.11,1.38-6.42,1.29Z"/>
  <path class="st0" d="M136.04,81.37c-.74-.73-1.35-1.34-2-1.98-2.83,2.82-5.6,5.69-8.64,8.18-.83.68-1.69,1.3-2.65,1.72-1.14.5-1.66.03-1.44-1.34.33-2.09,1.25-3.92,2.21-5.7,4.62-8.6,9.86-16.67,15.69-24.27,5.21-6.78,11.79-11.26,18.86-14.94,7.26-3.78,14.94-5.91,22.84-7.07.33-.05.68-.1,1.08.12-.13,1.63-.63,3.2-1.07,4.76-3.16,11.46-8.4,21.59-15.35,30.61-.8,1.04-1.89,1.82-2.83,2.68-1.31,1.2-3.01,1.78-4.07,3.38-.88,1.33-2.35,1.78-3.67,2.24-1.16.4-1.86,1.52-2.99,1.93-2.36.85-4.77,1.25-7.23,1.31-.92.02-1.55.46-2.09,1.21-2.41,3.28-5.33,5.84-8.68,7.77-.97.56-1.93,1.15-3,1.46-.49.15-1.04.29-1.44-.22-.4-.51-.21-1.11-.04-1.65.86-2.63,2.54-4.64,4.03-6.79.8-1.14,1.63-2.26,2.47-3.42ZM142.77,74.9c.35.06.64-.2.94-.46,1.48-1.24,2.96-2.48,4.44-3.71,4.58-3.83,9.15-7.66,13.74-11.48.53-.44.96-.92.77-1.72-.17-.71-.68-1.05-1.29-1.16-.55-.1-.99.24-1.4.58-6.03,4.92-12.05,9.85-18.07,14.78-.56.46-1.13.96-.89,1.9.25.94.99,1.08,1.76,1.28Z"/>
  <path class="st0" d="M170.66,190.6c-3.76-.62-7.31-1.65-10.77-3.05-9.03-3.64-16.63-9.61-22.93-17.81-1.63-2.12-3.6-3.9-5.3-5.96-6.81-8.26-10.92-17.98-12.12-29.24-.18-1.72-.28-3.45-.41-5.18,0-.14.05-.29.09-.51,1.83.22,3.56.78,5.28,1.37,7.98,2.75,14.97,7.61,21.79,12.94,6.29,4.93,10.52,11.8,14.55,18.88,4.95,8.69,8.19,18.2,9.83,28.56Z"/>
  <path class="st0" d="M105.78,214.34c-1.84-3.27-3.53-6.61-5.14-10-2.84-5.96-5.26-12.12-6.76-18.7-1.76-7.74-1.64-15.52-.22-23.3,1.48-8.15,3.79-16.04,5.97-23.96.51-1.84,1.03-3.68,1.52-5.53.19-.7.5-1.09,1.19-1.17,1.21-.16,2.42-.42,3.63-.65.56-.11.9.04,1.16.73,4.71,12.66,8.12,25.72,9.4,39.42.87,9.34.59,18.59-2.06,27.6-1.76,5.96-4.5,11.24-8.68,15.55Z"/>
  <path class="st0" d="M205.71,140.97c-9.72,6.11-19.87,6.78-30.5,4.4.82-3.26,1.61-6.39,2.42-9.61-1.42-.52-2.76-1.02-4.16-1.54-.64,2.52-1.25,4.97-1.87,7.41-.63,2.46-.67,2.51-2.88,2.28-6.39-.65-12.54-2.36-18.26-5.74-3.59-2.12-2.91-1.29-2.03-5.15.38-1.68.82-3.35,1.22-5.03.02-.1,0-.22,0-.39-1.61-.68-3.23-1.36-4.99-2.09-.54,2.58-1.06,5.11-1.62,7.81-4.04-3.61-8.59-6.12-12.21-10.14-1.1-1.23-1.73-2.51-1.24-4.33.24-.87.25-1.82.38-2.83,4.06-.47,8.11-1.01,12.17-1.39,2.34-.22,4.7-.13,7.05-.27,9.92-.6,19.24,2.2,28.31,6.38,9.78,4.5,18.54,10.9,26.57,18.63.51.49,1.02.99,1.65,1.6Z"/>
  <path class="st0" d="M133.88,8.84c2.36,5.58,3.76,11.36,4.4,17.39.58,5.41.42,10.8-.4,16.17-.19,1.23-.52,2.4-1.01,3.51-4.68,10.52-9.39,21.03-14.79,31.12-1.45,2.71-2.84,5.47-4.68,7.88-.41.53-.83,1.48-1.51,1.1-.69-.39-.37-1.38-.24-2.12.86-4.91,2.4-9.58,3.86-14.27.2-.65.4-1.3.62-2.03-1.5-.78-2.94-1.54-4.46-2.33-.9,2.69-1.75,5.32-2.65,7.92-.73,2.12-1.56,4.21-2.67,6.11-.45.77-.9,1.88-1.91,1.62-.93-.23-1-1.38-1.15-2.26-.48-2.83-.56-5.69-.45-8.55.22-5.51.57-11.02,1.21-16.5.58-4.9,1.13-9.82,2.42-14.56,1.21-4.45,3.62-8.21,5.96-11.96,4.55-7.29,10.21-13.26,16.94-17.92.14-.1.3-.18.54-.33ZM119.96,60.49c.89-.08,1.47-.64,1.76-1.7,1.12-4.09,2.28-8.16,3.43-12.24.94-3.34,1.9-6.68,2.84-10.03.42-1.5-.3-2.51-1.61-2.33-.82.12-1.1.81-1.32,1.57-.89,3.08-1.77,6.17-2.67,9.25-1.27,4.36-2.57,8.71-3.82,13.08-.42,1.48.13,2.42,1.39,2.41Z"/>
  <path class="st0" d="M35.92,33.28c2.62-.08,5.09.47,7.56,1.03,9.77,2.24,18.28,7.38,25.89,14.58,5.63,5.33,10.44,11.44,13.77,18.91,2.56,5.73,4.4,11.72,4.82,18.2.1,1.51.07,3.01.09,4.61-2.24-.33-4.34-.96-6.42-1.62-9.71-3.07-18.4-8.4-26.34-15.39-1.86-1.63-2.96-3.92-4.28-6.02-5.52-8.74-10.17-18.01-13.41-28.16-.63-1.99-1.22-4-1.68-6.15ZM54.64,49.92c-.82.1-1.44.55-1.75,1.4-.39,1.07.41,1.65.92,2.25,5.91,6.93,11.84,13.83,17.76,20.75.42.49.92.81,1.51.88.85.11,1.43-.37,1.82-1.17.37-.77.27-1.46-.29-2.1-6.27-7.13-12.54-14.27-18.79-21.42-.34-.39-.74-.52-1.17-.59Z"/>
  <path class="st0" d="M92.78,63.87c.73,3.06,1.43,5.99,2.12,8.93.67,2.84,1.2,5.71,1.47,8.63.06.62.12,1.22-.4,1.53-.64.38-1.01-.21-1.35-.69-2.3-3.33-4.14-6.99-5.86-10.72-2.93-6.37-5.82-12.77-8.8-19.11-.93-1.99-1.05-4.14-1.3-6.26-.56-4.71-.94-9.45-.86-14.21.11-6.64.88-13.17,2.99-19.42.67-1.98,1.22-2.32,3.14-2.17,2.86.22,5.07,1.83,7.08,3.98,3.07,3.29,5.22,7.32,7.07,11.57,2.73,6.3,4.8,12.86,6.05,19.76.42,2.29.1,4.44-.51,6.6-.77,2.72-1.46,5.47-2.19,8.2-.26.98-.13,1.91.18,2.83,1.69,4.95,1.95,9.99.77,15.12-.25,1.09-.51,2.38-1.67,2.49-1.2.12-1.62-1.2-1.97-2.19-1.45-4.09-2-8.41-2.49-12.75-.05-.42-.08-.85-.14-1.27-.07-.52-.3-.85-.81-.85-.81,0-1.62,0-2.52,0ZM95.01,56.05c-.02-.08-.07-.38-.13-.67-1.13-5.41-2.26-10.82-3.4-16.23-.45-2.14-.89-4.28-1.39-6.41-.24-1-1.02-1.5-1.79-1.27-.95.29-1.27.92-1.08,2.11.31,1.94.67,3.87,1.09,5.77.88,3.98,1.59,8.01,2.44,11.99.39,1.8.7,3.62,1.09,5.41.23,1.06.99,1.65,1.79,1.52.82-.13,1.4-.97,1.38-2.22Z"/>
  <path class="st0" d="M78.88,117.35c-1.56,4.07-4.24,7.05-7.33,9.62-4.77,3.98-10.26,6.14-15.87,7.98-7.18,2.35-14.5,3.77-21.99,4.1-5.68.25-11.31.09-16.8-1.79-3.55-1.21-6.88-2.93-9.74-5.67-.23-.22-.45-.46-.76-.78,7.07-4.5,14.07-8.95,21.19-13.49.95,3.13,1.87,6.18,2.83,9.35,1.27-.39,2.5-.77,3.85-1.19-1.03-3.25-2.02-6.39-3.04-9.62,8-3.45,16.14-5.61,24.9-5.03.41,3.12.83,6.3,1.26,9.61,7.14-1.11,14.25-2.21,21.35-3.3.05.07.11.14.16.2Z"/>
  <path class="st0" d="M180.1,88.84c-.7-2.47-1.38-4.86-2.08-7.33,1.58-.76,3.21-.77,4.82-.87,8.1-.5,15.72,1.72,23.14,5.19.86.4.81,1.04.55,1.77-.89,2.55-2.21,4.78-3.98,6.66-4.53,4.83-10.07,7.53-15.85,9.76-1.32.51-2.64.98-4.1,1.53-.42-2.43-.81-4.72-1.24-7.17-1.58.53-3.13,1.06-4.68,1.58-6.73,2.25-13.47,4.46-20.37,5.99-7.71,1.71-15.4,2.03-23.09-.06-1.54-.42-1.94-.97-1.79-2.76.02-.23.11-.47.08-.68-.43-3.31,1.44-5.08,3.54-6.57,3.53-2.5,7.48-3.39,11.57-3.74,4.41-.37,8.81-.84,13.22-1.28,5.32-.53,10.64-1.07,15.96-1.61,1.39-.14,2.78-.26,4.29-.41Z"/>
  <path class="st0" d="M184.8,225.32c-1.87-12.17-.28-23.6,4.68-34.36,5.28-11.44,13.31-19.55,23.83-24.7.25,5.04.23,9.91-.08,14.76-.43,6.75-1.43,13.39-2.82,19.98-.7,3.33-2.16,5.94-4.19,8.38-4.53,5.42-9.76,9.71-15.63,13.03-1.85,1.04-3.78,1.91-5.8,2.91Z"/>
  <path class="st0" d="M123.33,108.63c-.17,5.46-3.07,10.57-8.4,13.71-6.04,3.56-12.33,3.92-18.43.25-5.31-3.2-8.55-8.29-8.72-15.3-.13-5.62,2.11-10.15,5.99-13.56,7.49-6.57,18.26-5.96,25.1,1.49,2.95,3.21,4.48,7.23,4.45,13.41Z"/>
  <path class="st0" d="M11.93,78.72c17.73,5.64,35.38,11.25,53.06,16.88.54-2.33,1.07-4.6,1.63-7.05,5.72,3.47,10.68,7.83,14.59,13.65-.25.46-.61.57-.96.69-7.02,2.46-14.19,3.78-21.54,3.55-7.73-.25-15.16-2.17-22.34-5.4-5.91-2.66-11.54-5.94-16.62-10.31-3.24-2.79-5.98-6.09-7.55-10.45-.15-.43-.34-.84-.28-1.56Z"/>
  <path class="st0" d="M78.71,117.15c.08-.01.16-.02.25-.03-.03.08-.06.16-.08.24-.05-.07-.11-.14-.16-.2Z"/>
  <path class="st0" d="M479.73,154.29c2.39-.15,4.45.8,6.22,2.73.79.87,1.15,1.89,1.2,3.08.21,5.16.51,10.31,1.13,15.44.25,2.05-.72,3.5-1.99,4.68-2.6,2.41-5.58,3.7-8.97,3.38-1.93-.18-3.54-1.3-5.01-2.65-5.66-5.17-6.59-15.36-1.98-21.63,2.47-3.36,5.57-5.02,9.41-5.02ZM484.03,172.33c-.29-4-.53-7.79-.87-11.56-.12-1.29-1.1-1.75-2.1-2.02-.63-.17-1.01.08-1.22.82-1.3,4.56.39,9.97,4.19,12.76Z"/>
</svg>